# xmcd CD database file
#
# Track frame offsets:
#	150
#	12984
#	25972
#	38368
#	52458
#	64494
#	76590
#	89136
#	101864
#	114545
#	126197
#	138549
#	150220
#	162415
#
# Disc length: 2329 seconds
#
# Revision: 0
# Processed by: cddbd v1.5.2PL0 Copyright (c) Steve Scherf et al.
# Submitted via: CDex 1.51
#
DISCID=bc09170e
DTITLE=Roy Acuff - Night Train To Memphis - Disc 2
DYEAR=1900
DGENRE=Country
TTITLE0=Night Train To Memphis
TTITLE1=Our Own Jole Blon
TTITLE2=Be Honest With Me
TTITLE3=You're The Only Star In My Blue Heaven
TTITLE4=I'll Be Alone
TTITLE5=Old Age Pension Check
TTITLE6=Lying Woman Blues
TTITLE7=Ida Red
TTITLE8=Worried Mind
TTITLE9=Lonesome Indian
TTITLE10=Eyes Are Watching You
TTITLE11=Brother Take Warning
TTITLE12=I'll Reap My Harvest In Heaven
TTITLE13=Prodigal Son
EXTD=
EXTT0=
EXTT1=
EXTT2=
EXTT3=
EXTT4=
EXTT5=
EXTT6=
EXTT7=
EXTT8=
EXTT9=
EXTT10=
EXTT11=
EXTT12=
EXTT13=
PLAYORDER=
